<?xml version="1.0" encoding="UTF-8" standalone="no"?>
<svg
   xmlns:dc="http://purl.org/dc/elements/1.1/"
   xmlns:cc="http://creativecommons.org/ns#"
   xmlns:rdf="http://www.w3.org/1999/02/22-rdf-syntax-ns#"
   xmlns:svg="http://www.w3.org/2000/svg"
   xmlns="http://www.w3.org/2000/svg"
   xmlns:sodipodi="http://sodipodi.sourceforge.net/DTD/sodipodi-0.dtd"
   xmlns:inkscape="http://www.inkscape.org/namespaces/inkscape"
   width="21.999973"
   height="21.999973"
   viewBox="0 0 21.999973 21.999973"
   version="1.1"
   id="svg6"
   sodipodi:docname="arrow-left-o.svg"
   inkscape:version="0.92.2 5c3e80d, 2017-08-06"
   style="fill:none">
  <metadata
     id="metadata12">
    <rdf:RDF>
      <cc:Work
         rdf:about="">
        <dc:format>image/svg+xml</dc:format>
        <dc:type
           rdf:resource="http://purl.org/dc/dcmitype/StillImage" />
        <dc:title></dc:title>
      </cc:Work>
    </rdf:RDF>
  </metadata>
  <defs
     id="defs10" />
  <sodipodi:namedview
     pagecolor="#ffffff"
     bordercolor="#666666"
     borderopacity="1"
     objecttolerance="10"
     gridtolerance="10"
     guidetolerance="10"
     inkscape:pageopacity="0"
     inkscape:pageshadow="2"
     inkscape:window-width="1920"
     inkscape:window-height="1056"
     id="namedview8"
     showgrid="false"
     inkscape:zoom="9.8333333"
     inkscape:cx="-7.2542384"
     inkscape:cy="10.999975"
     inkscape:window-x="0"
     inkscape:window-y="0"
     inkscape:window-maximized="1"
     inkscape:current-layer="svg6"
     fit-margin-top="0"
     fit-margin-left="0"
     fit-margin-right="0"
     fit-margin-bottom="0" />
  <path
     d="m 10.948099,13.828499 -1.4142001,1.4142 -4.24268,-4.2427 4.24268,-4.2426001 1.4142001,1.41421 -1.8285001,1.82839 H 16.656799 V 11.999999 H 9.1195989 Z"
     id="path2"
     style="fill:#3973ac;fill-opacity:1"
     inkscape:connector-curvature="0" />
  <path
     d="m 3.2218289,18.778199 c -4.2957719,-4.2958 -4.2957719,-11.2606101 0,-15.5563701 4.29576,-4.2957719 11.2605701,-4.2957719 15.5563701,0 4.2957,4.29576 4.2957,11.2605701 0,15.5563701 -4.2958,4.2957 -11.2606101,4.2957 -15.5563701,0 z m 1.41421,-1.4142 c -3.51472,-3.5148 -3.51472,-9.2132401 0,-12.7279601 3.51472,-3.51472 9.2131601,-3.51472 12.7279601,0 3.5147,3.51472 3.5147,9.2131601 0,12.7279601 -3.5148,3.5147 -9.2132401,3.5147 -12.7279601,0 z"
     id="path4"
     style="clip-rule:evenodd;fill:#3973ac;fill-opacity:1;fill-rule:evenodd"
     inkscape:connector-curvature="0" />
</svg>
