<?xml version="1.0" encoding="UTF-8" standalone="no"?>
<svg
   viewBox="0 0 15 15"
   fill="none"
   width="15"
   height="15"
   version="1.1"
   id="svg4"
   sodipodi:docname="arrow-left.svg"
   inkscape:version="1.1.2 (0a00cf5339, 2022-02-04)"
   xmlns:inkscape="http://www.inkscape.org/namespaces/inkscape"
   xmlns:sodipodi="http://sodipodi.sourceforge.net/DTD/sodipodi-0.dtd"
   xmlns="http://www.w3.org/2000/svg"
   xmlns:svg="http://www.w3.org/2000/svg">
  <defs
     id="defs8" />
  <sodipodi:namedview
     id="namedview6"
     pagecolor="#ffffff"
     bordercolor="#666666"
     borderopacity="1.0"
     inkscape:pageshadow="2"
     inkscape:pageopacity="0.0"
     inkscape:pagecheckerboard="0"
     showgrid="false"
     inkscape:zoom="37.866667"
     inkscape:cx="7.5"
     inkscape:cy="7.5"
     inkscape:window-width="1456"
     inkscape:window-height="751"
     inkscape:window-x="0"
     inkscape:window-y="0"
     inkscape:window-maximized="1"
     inkscape:current-layer="svg4" />
  <path
     d="M6.854 5.854l.353-.354-.707-.707-.354.353.708.708zM4.5 7.5l-.354-.354-.353.354.353.354L4.5 7.5zm1.646 2.354l.354.353.707-.707-.353-.354-.708.708zM7.5.5V0v.5zm7 7h.5-.5zm-14 0H1 .5zm7 7V14v.5zM6.146 5.146l-2 2 .708.708 2-2-.708-.708zm-2 2.708l2 2 .708-.708-2-2-.708.708zM4.5 8H11V7H4.5v1zm3-7A6.5 6.5 0 0114 7.5h1A7.5 7.5 0 007.5 0v1zM1 7.5A6.5 6.5 0 017.5 1V0A7.5 7.5 0 000 7.5h1zM7.5 14A6.5 6.5 0 011 7.5H0A7.5 7.5 0 007.5 15v-1zm0 1A7.5 7.5 0 0015 7.5h-1A6.5 6.5 0 017.5 14v1z"
     fill="currentColor"
     id="path2"
     style="fill:#0ce90c;fill-opacity:1" />
</svg>
