<?xml version="1.0" encoding="UTF-8" standalone="no"?>
<svg
   width="22"
   height="20"
   stroke-width="2"
   viewBox="0 0 22 20"
   fill="none"
   color="#000000"
   version="1.1"
   id="svg6"
   sodipodi:docname="camera.svg"
   inkscape:version="1.1.2 (0a00cf5339, 2022-02-04)"
   xmlns:inkscape="http://www.inkscape.org/namespaces/inkscape"
   xmlns:sodipodi="http://sodipodi.sourceforge.net/DTD/sodipodi-0.dtd"
   xmlns="http://www.w3.org/2000/svg"
   xmlns:svg="http://www.w3.org/2000/svg">
  <defs
     id="defs10" />
  <sodipodi:namedview
     id="namedview8"
     pagecolor="#ffffff"
     bordercolor="#666666"
     borderopacity="1.0"
     inkscape:pageshadow="2"
     inkscape:pageopacity="0.0"
     inkscape:pagecheckerboard="0"
     showgrid="false"
     fit-margin-top="0"
     fit-margin-left="0"
     fit-margin-right="0"
     fit-margin-bottom="0"
     inkscape:zoom="31.041667"
     inkscape:cx="11.001342"
     inkscape:cy="10.002685"
     inkscape:window-width="1920"
     inkscape:window-height="1012"
     inkscape:window-x="0"
     inkscape:window-y="0"
     inkscape:window-maximized="1"
     inkscape:current-layer="svg6" />
  <path
     d="M 1,17 V 7 A 2,2 0 0 1 3,5 H 3.5 A 2,2 0 0 0 5.1,4.2 L 7.32,1.24 A 0.6,0.6 0 0 1 7.8,1 h 6.4 a 0.6,0.6 0 0 1 0.48,0.24 L 16.9,4.2 A 2,2 0 0 0 18.5,5 H 19 a 2,2 0 0 1 2,2 v 10 a 2,2 0 0 1 -2,2 H 3 A 2,2 0 0 1 1,17 Z"
     stroke="#000000"
     stroke-width="2"
     stroke-linecap="round"
     stroke-linejoin="round"
     id="path2"
     style="stroke:#619b8a;stroke-opacity:1" />
  <path
     d="m 11,15 a 4,4 0 1 0 0,-8 4,4 0 0 0 0,8 z"
     stroke="#000000"
     stroke-width="2"
     stroke-linecap="round"
     stroke-linejoin="round"
     id="path4"
     style="stroke:#619b8a;stroke-opacity:1" />
</svg>
