<?xml version="1.0" encoding="UTF-8" standalone="no"?>
<svg
   width="20.299999"
   height="20.299999"
   viewBox="0 0 20.299999 20.299999"
   stroke-width="2.3"
   fill="none"
   color="#000000"
   version="1.1"
   id="svg4"
   sodipodi:docname="dice-three.svg"
   inkscape:version="1.4 (e7c3feb1, 2024-10-09)"
   xmlns:inkscape="http://www.inkscape.org/namespaces/inkscape"
   xmlns:sodipodi="http://sodipodi.sourceforge.net/DTD/sodipodi-0.dtd"
   xmlns="http://www.w3.org/2000/svg"
   xmlns:svg="http://www.w3.org/2000/svg">
  <defs
     id="defs4" />
  <sodipodi:namedview
     id="namedview4"
     pagecolor="#ffffff"
     bordercolor="#000000"
     borderopacity="0.25"
     inkscape:showpageshadow="2"
     inkscape:pageopacity="0.0"
     inkscape:pagecheckerboard="0"
     inkscape:deskcolor="#d1d1d1"
     inkscape:zoom="12.256518"
     inkscape:cx="10.117066"
     inkscape:cy="9.9946824"
     inkscape:window-width="1104"
     inkscape:window-height="810"
     inkscape:window-x="0"
     inkscape:window-y="38"
     inkscape:window-maximized="0"
     inkscape:current-layer="svg4" />
  <path
     d="M 1.15,18.55 V 1.75 c 0,-0.33137 0.26863,-0.6 0.6,-0.6 h 16.8 c 0.3314,0 0.6,0.26863 0.6,0.6 v 16.8 c 0,0.3314 -0.2686,0.6 -0.6,0.6 H 1.75 c -0.33137,0 -0.6,-0.2686 -0.6,-0.6 z"
     stroke="#000000"
     stroke-width="2.3"
     id="path1"
     style="stroke:#7aa2f7;stroke-opacity:1" />
  <path
     d="m 5.65,6.15 c -0.27614,0 -0.5,-0.22386 -0.5,-0.5 0,-0.27614 0.22386,-0.5 0.5,-0.5 0.27614,0 0.5,0.22386 0.5,0.5 0,0.27614 -0.22386,0.5 -0.5,0.5 z"
     fill="#000000"
     stroke="#000000"
     stroke-width="2.3"
     stroke-linecap="round"
     stroke-linejoin="round"
     id="path2"
     style="fill:#7aa2f7;fill-opacity:1;stroke:#7aa2f7;stroke-opacity:1" />
  <path
     d="m 10.15,10.65 c -0.2761,0 -0.5,-0.2239 -0.5,-0.5 0,-0.2761 0.2239,-0.5 0.5,-0.5 0.2761,0 0.5,0.2239 0.5,0.5 0,0.2761 -0.2239,0.5 -0.5,0.5 z"
     fill="#000000"
     stroke="#000000"
     stroke-width="2.3"
     stroke-linecap="round"
     stroke-linejoin="round"
     id="path3"
     style="fill:#7aa2f7;fill-opacity:1;stroke:#7aa2f7;stroke-opacity:1" />
  <path
     d="m 14.65,15.15 c -0.2761,0 -0.5,-0.2239 -0.5,-0.5 0,-0.2761 0.2239,-0.5 0.5,-0.5 0.2761,0 0.5,0.2239 0.5,0.5 0,0.2761 -0.2239,0.5 -0.5,0.5 z"
     fill="#000000"
     stroke="#000000"
     stroke-width="2.3"
     stroke-linecap="round"
     stroke-linejoin="round"
     id="path4"
     style="fill:#7aa2f7;fill-opacity:1;stroke:#7aa2f7;stroke-opacity:1" />
</svg>
