<?xml version="1.0" encoding="UTF-8" standalone="no"?>
<svg
   width="20"
   height="20"
   stroke-width="2"
   viewBox="0 0 20 20"
   fill="none"
   color="#000000"
   version="1.1"
   id="svg4"
   sodipodi:docname="display-grid.svg"
   inkscape:version="1.4 (e7c3feb1, 2024-10-09)"
   xmlns:inkscape="http://www.inkscape.org/namespaces/inkscape"
   xmlns:sodipodi="http://sodipodi.sourceforge.net/DTD/sodipodi-0.dtd"
   xmlns="http://www.w3.org/2000/svg"
   xmlns:svg="http://www.w3.org/2000/svg">
  <defs
     id="defs8" />
  <sodipodi:namedview
     id="namedview6"
     pagecolor="#ffffff"
     bordercolor="#666666"
     borderopacity="1.0"
     inkscape:pageshadow="2"
     inkscape:pageopacity="0.0"
     inkscape:pagecheckerboard="0"
     showgrid="false"
     inkscape:zoom="31.041667"
     inkscape:cx="10.034899"
     inkscape:cy="10.002684"
     inkscape:window-width="1200"
     inkscape:window-height="1186"
     inkscape:window-x="0"
     inkscape:window-y="25"
     inkscape:window-maximized="0"
     inkscape:current-layer="svg4"
     fit-margin-top="0"
     fit-margin-left="0"
     fit-margin-right="0"
     fit-margin-bottom="0"
     inkscape:showpageshadow="2"
     inkscape:deskcolor="#d1d1d1" />
  <path
     d="M 12,18.4 V 12.6 A 0.6,0.6 0 0 1 12.6,12 h 5.8 a 0.6,0.6 0 0 1 0.6,0.6 v 5.8 A 0.6,0.6 0 0 1 18.4,19 H 12.6 A 0.6,0.6 0 0 1 12,18.4 Z m -11,0 V 12.6 A 0.6,0.6 0 0 1 1.6,12 H 7.4 A 0.6,0.6 0 0 1 8,12.6 v 5.8 A 0.6,0.6 0 0 1 7.4,19 H 1.6 A 0.6,0.6 0 0 1 1,18.4 Z M 12,7.4 V 1.6 A 0.6,0.6 0 0 1 12.6,1 h 5.8 A 0.6,0.6 0 0 1 19,1.6 V 7.4 A 0.6,0.6 0 0 1 18.4,8 H 12.6 A 0.6,0.6 0 0 1 12,7.4 Z M 1,7.4 V 1.6 A 0.6,0.6 0 0 1 1.6,1 H 7.4 A 0.6,0.6 0 0 1 8,1.6 V 7.4 A 0.6,0.6 0 0 1 7.4,8 H 1.6 A 0.6,0.6 0 0 1 1,7.4 Z"
     stroke="#000000"
     stroke-width="2"
     id="path2"
     style="stroke:#7aa2f7;stroke-opacity:1" />
</svg>
