<?xml version="1.0" encoding="UTF-8" standalone="no"?>
<svg
   xmlns:dc="http://purl.org/dc/elements/1.1/"
   xmlns:cc="http://creativecommons.org/ns#"
   xmlns:rdf="http://www.w3.org/1999/02/22-rdf-syntax-ns#"
   xmlns:svg="http://www.w3.org/2000/svg"
   xmlns="http://www.w3.org/2000/svg"
   xmlns:sodipodi="http://sodipodi.sourceforge.net/DTD/sodipodi-0.dtd"
   xmlns:inkscape="http://www.inkscape.org/namespaces/inkscape"
   width="18"
   height="22.171492"
   viewBox="0 0 18 22.171492"
   version="1.1"
   id="svg4"
   sodipodi:docname="home.svg"
   style="fill:none"
   inkscape:version="0.92.2 5c3e80d, 2017-08-06">
  <metadata
     id="metadata10">
    <rdf:RDF>
      <cc:Work
         rdf:about="">
        <dc:format>image/svg+xml</dc:format>
        <dc:type
           rdf:resource="http://purl.org/dc/dcmitype/StillImage" />
        <dc:title></dc:title>
      </cc:Work>
    </rdf:RDF>
  </metadata>
  <defs
     id="defs8" />
  <sodipodi:namedview
     pagecolor="#ffffff"
     bordercolor="#666666"
     borderopacity="1"
     objecttolerance="10"
     gridtolerance="10"
     guidetolerance="10"
     inkscape:pageopacity="0"
     inkscape:pageshadow="2"
     inkscape:window-width="1920"
     inkscape:window-height="1056"
     id="namedview6"
     showgrid="false"
     fit-margin-top="0"
     fit-margin-left="0"
     fit-margin-right="0"
     fit-margin-bottom="0"
     inkscape:zoom="9.8333333"
     inkscape:cx="9"
     inkscape:cy="11.0858"
     inkscape:window-x="0"
     inkscape:window-y="0"
     inkscape:window-maximized="1"
     inkscape:current-layer="svg4" />
  <path
     d="M 18,7.8578624 11.0208,0.87868238 c -1.1716,-1.171576 -3.0711,-1.171577 -4.24263,0 L 0,7.6568524 V 22.171492 h 7 v -6 c 0,-1.1046 0.8954,-2 2,-2 1.1046,0 2,0.8954 2,2 v 6 h 7 z M 8.1924,2.2928924 2,8.4852824 V 20.171492 h 3 v -4 c 0,-2.2091 1.79086,-4 4,-4 2.2091,0 4,1.7909 4,4 v 4 h 3 V 8.6862924 l -6.3934,-6.3934 c -0.3905,-0.39052 -1.0237,-0.39052 -1.4142,0 z"
     id="path2"
     style="clip-rule:evenodd;fill:#3973ac;fill-opacity:1;fill-rule:evenodd"
     inkscape:connector-curvature="0" />
</svg>
