<?xml version="1.0" encoding="UTF-8" standalone="no"?>
<svg
   width="21.512955"
   height="24"
   viewBox="0 0 25.815545 28.8"
   stroke-width="1.3"
   fill="none"
   color="#000000"
   version="1.1"
   id="svg14"
   sodipodi:docname="raw.svg"
   inkscape:version="1.1.2 (0a00cf5339, 2022-02-04)"
   xmlns:inkscape="http://www.inkscape.org/namespaces/inkscape"
   xmlns:sodipodi="http://sodipodi.sourceforge.net/DTD/sodipodi-0.dtd"
   xmlns="http://www.w3.org/2000/svg"
   xmlns:svg="http://www.w3.org/2000/svg">
  <defs
     id="defs18" />
  <sodipodi:namedview
     id="namedview16"
     pagecolor="#ffffff"
     bordercolor="#666666"
     borderopacity="1.0"
     inkscape:pageshadow="2"
     inkscape:pageopacity="0.0"
     inkscape:pagecheckerboard="0"
     showgrid="false"
     fit-margin-top="0"
     fit-margin-left="0"
     fit-margin-right="0"
     fit-margin-bottom="0"
     inkscape:zoom="43.55"
     inkscape:cx="7.1871412"
     inkscape:cy="8.0482204"
     inkscape:window-width="2560"
     inkscape:window-height="1368"
     inkscape:window-x="0"
     inkscape:window-y="0"
     inkscape:window-maximized="1"
     inkscape:current-layer="svg14" />
  <path
     d="M 0.9699482,5.4466322 V 1.865285 c 0,-0.4944796 0.4008572,-0.8953368 0.8953368,-0.8953368 h 22.084974 c 0.494525,0 0.895337,0.4008572 0.895337,0.8953368 v 3.5813472"
     stroke="#000000"
     stroke-width="1.9399"
     stroke-linecap="round"
     id="path2"
     style="stroke:#59a2d8;stroke-opacity:1" />
  <path
     d="m 0.9699482,23.353368 v 3.581347 c 0,0.494525 0.4008572,0.895337 0.8953368,0.895337 h 22.084974 c 0.494525,0 0.895337,-0.400812 0.895337,-0.895337 v -3.581347"
     stroke="#000000"
     stroke-width="1.9399"
     stroke-linecap="round"
     id="path4"
     style="stroke:#59a2d8;stroke-opacity:1" />
  <path
     d="M 19.622798,9.9233162 V 18.876684 L 21.86114,14.4 24.099482,18.876684 V 9.9233162"
     stroke="#000000"
     stroke-width="1.9399"
     stroke-linecap="round"
     stroke-linejoin="round"
     id="path6"
     style="stroke:#59a2d8;stroke-opacity:1" />
  <path
     d="M 10.66943,18.876684 V 14.4 m 0,0 v -2.238342 c 0,-1.236206 1.002181,-2.2383418 2.238342,-2.2383418 v 0 c 1.236162,0 2.238342,1.0021358 2.238342,2.2383418 V 14.4 m -4.476684,0 h 4.476684 m 0,0 v 4.476684"
     stroke="#000000"
     stroke-width="1.9399"
     stroke-linecap="round"
     stroke-linejoin="round"
     id="path8"
     style="stroke:#59a2d8;stroke-opacity:1" />
  <path
     d="M 1.7160622,18.876684 V 14.4 9.9233162 h 3.5813472 c 0.4944796,0 0.8953368,0.4008568 0.8953368,0.8953368 v 1.343005 C 6.1927462,13.39782 5.1906106,14.4 3.9544042,14.4 v 0"
     stroke="#000000"
     stroke-width="1.9399"
     stroke-linecap="round"
     stroke-linejoin="round"
     id="path10"
     style="stroke:#59a2d8;stroke-opacity:1" />
  <path
     d="m 1.7160622,14.4 h 2.238342 v 0 c 1.2362064,0 2.238342,1.002181 2.238342,2.238342 v 2.238342"
     stroke="#000000"
     stroke-width="1.9399"
     stroke-linecap="round"
     stroke-linejoin="round"
     id="path12"
     style="stroke:#59a2d8;stroke-opacity:1" />
</svg>
