<?xml version="1.0" encoding="UTF-8" standalone="no"?>
<svg
   width="21.512955"
   height="24"
   viewBox="0 0 25.815545 28.8"
   stroke-width="1.3"
   fill="none"
   color="#000000"
   version="1.1"
   id="svg14"
   sodipodi:docname="raw.svg"
   inkscape:version="1.1.2 (0a00cf5339, 2022-02-04)"
   xmlns:inkscape="http://www.inkscape.org/namespaces/inkscape"
   xmlns:sodipodi="http://sodipodi.sourceforge.net/DTD/sodipodi-0.dtd"
   xmlns="http://www.w3.org/2000/svg"
   xmlns:svg="http://www.w3.org/2000/svg">
  <defs
     id="defs18" />
  <sodipodi:namedview
     id="namedview16"
     pagecolor="#ffffff"
     bordercolor="#666666"
     borderopacity="1.0"
     inkscape:pageshadow="2"
     inkscape:pageopacity="0.0"
     inkscape:pagecheckerboard="0"
     showgrid="false"
     fit-margin-top="0"
     fit-margin-left="0"
     fit-margin-right="0"
     fit-margin-bottom="0"
     inkscape:zoom="43.55"
     inkscape:cx="7.1871412"
     inkscape:cy="8.0482204"
     inkscape:window-width="2560"
     inkscape:window-height="1368"
     inkscape:window-x="0"
     inkscape:window-y="0"
     inkscape:window-maximized="1"
     inkscape:current-layer="svg14" />
  <g
     id="g859"
     transform="matrix(1.492228,0,0,1.492228,-4.9989638,-3.5067358)">
    <path
       d="M 4,6 V 3.6 C 4,3.26863 4.26863,3 4.6,3 H 19.4 C 19.7314,3 20,3.26863 20,3.6 V 6"
       stroke="#000000"
       stroke-width="1.3"
       stroke-linecap="round"
       id="path2"
       style="stroke:#619b8a;stroke-opacity:1" />
    <path
       d="m 4,18 v 2.4 C 4,20.7314 4.26863,21 4.6,21 H 19.4 C 19.7314,21 20,20.7314 20,20.4 V 18"
       stroke="#000000"
       stroke-width="1.3"
       stroke-linecap="round"
       id="path4"
       style="stroke:#619b8a;stroke-opacity:1" />
    <path
       d="m 16.5,9 v 6 l 1.5,-3 1.5,3 V 9"
       stroke="#000000"
       stroke-width="1.3"
       stroke-linecap="round"
       stroke-linejoin="round"
       id="path6"
       style="stroke:#619b8a;stroke-opacity:1" />
    <path
       d="m 10.5,15 v -3 m 0,0 V 10.5 C 10.5,9.67157 11.1716,9 12,9 v 0 c 0.8284,0 1.5,0.67157 1.5,1.5 V 12 m -3,0 h 3 m 0,0 v 3"
       stroke="#000000"
       stroke-width="1.3"
       stroke-linecap="round"
       stroke-linejoin="round"
       id="path8"
       style="stroke:#619b8a;stroke-opacity:1" />
    <path
       d="M 4.5,15 V 12 9 h 2.4 c 0.33137,0 0.6,0.26863 0.6,0.6 v 0.9 C 7.5,11.3284 6.82843,12 6,12 v 0"
       stroke="#000000"
       stroke-width="1.3"
       stroke-linecap="round"
       stroke-linejoin="round"
       id="path10"
       style="stroke:#619b8a;stroke-opacity:1" />
    <path
       d="M 4.5,12 H 6 v 0 c 0.82843,0 1.5,0.6716 1.5,1.5 V 15"
       stroke="#000000"
       stroke-width="1.3"
       stroke-linecap="round"
       stroke-linejoin="round"
       id="path12"
       style="stroke:#619b8a;stroke-opacity:1" />
  </g>
</svg>
