<?xml version="1.0" encoding="UTF-8" standalone="no"?>
<svg
   width="17.927462"
   height="20"
   viewBox="0 0 21.512953 24"
   stroke-width="1.3"
   fill="none"
   color="#000000"
   version="1.1"
   id="svg14"
   sodipodi:docname="raw.svg"
   inkscape:version="1.1.2 (0a00cf5339, 2022-02-04)"
   xmlns:inkscape="http://www.inkscape.org/namespaces/inkscape"
   xmlns:sodipodi="http://sodipodi.sourceforge.net/DTD/sodipodi-0.dtd"
   xmlns="http://www.w3.org/2000/svg"
   xmlns:svg="http://www.w3.org/2000/svg">
  <defs
     id="defs18" />
  <sodipodi:namedview
     id="namedview16"
     pagecolor="#ffffff"
     bordercolor="#666666"
     borderopacity="1.0"
     inkscape:pageshadow="2"
     inkscape:pageopacity="0.0"
     inkscape:pagecheckerboard="0"
     showgrid="false"
     fit-margin-top="0"
     fit-margin-left="0"
     fit-margin-right="0"
     fit-margin-bottom="0"
     inkscape:zoom="30.7945"
     inkscape:cx="7.1441329"
     inkscape:cy="4.562503"
     inkscape:window-width="2048"
     inkscape:window-height="1080"
     inkscape:window-x="0"
     inkscape:window-y="0"
     inkscape:window-maximized="1"
     inkscape:current-layer="svg14" />
  <path
     d="M 0.80829156,4.538861 V 1.5544055 c 0,-0.4120663 0.33404764,-0.74611394 0.74611394,-0.74611394 H 19.958548 c 0.412104,0 0.746114,0.33404764 0.746114,0.74611394 V 4.538861"
     stroke="#000000"
     stroke-width="1.61658"
     stroke-linecap="round"
     id="path2"
     style="stroke:#ffc03f;stroke-opacity:1" />
  <path
     d="m 0.80829156,19.461139 v 2.984455 c 0,0.412104 0.33404764,0.746114 0.74611394,0.746114 H 19.958548 c 0.412104,0 0.746114,-0.33401 0.746114,-0.746114 v -2.984455"
     stroke="#000000"
     stroke-width="1.61658"
     stroke-linecap="round"
     id="path4"
     style="stroke:#ffc03f;stroke-opacity:1" />
  <path
     d="M 16.352331,8.2694305 V 15.730569 L 18.217615,12 20.0829,15.730569 V 8.2694305"
     stroke="#000000"
     stroke-width="1.61658"
     stroke-linecap="round"
     stroke-linejoin="round"
     id="path6"
     style="stroke:#ffc03f;stroke-opacity:1" />
  <path
     d="M 8.8911919,15.730569 V 12 m 0,0 v -1.865285 c 0,-1.0301715 0.8351507,-1.8652845 1.8652851,-1.8652845 v 0 c 1.030134,0 1.865284,0.835113 1.865284,1.8652845 V 12 m -3.7305691,0 h 3.7305691 m 0,0 v 3.730569"
     stroke="#000000"
     stroke-width="1.61658"
     stroke-linecap="round"
     stroke-linejoin="round"
     id="path8"
     style="stroke:#ffc03f;stroke-opacity:1" />
  <path
     d="M 1.4300531,15.730569 V 12 8.2694305 h 2.9844556 c 0.4120663,0 0.7461139,0.3340472 0.7461139,0.7461138 V 10.134715 C 5.1606226,11.16485 4.3255097,12 3.2953379,12 v 0"
     stroke="#000000"
     stroke-width="1.61658"
     stroke-linecap="round"
     stroke-linejoin="round"
     id="path10"
     style="stroke:#ffc03f;stroke-opacity:1" />
  <path
     d="m 1.4300531,12 h 1.8652848 v 0 c 1.0301718,0 1.8652847,0.83515 1.8652847,1.865284 v 1.865285"
     stroke="#000000"
     stroke-width="1.61658"
     stroke-linecap="round"
     stroke-linejoin="round"
     id="path12"
     style="stroke:#ffc03f;stroke-opacity:1" />
</svg>
