<?xml version="1.0" encoding="UTF-8" standalone="no"?>
<svg
   width="18"
   height="20"
   viewBox="0 0 18 20"
   stroke-width="2"
   fill="none"
   color="#000000"
   version="1.1"
   id="svg8"
   sodipodi:docname="raw-format.svg"
   inkscape:version="1.1.2 (0a00cf5339, 2022-02-04)"
   xmlns:inkscape="http://www.inkscape.org/namespaces/inkscape"
   xmlns:sodipodi="http://sodipodi.sourceforge.net/DTD/sodipodi-0.dtd"
   xmlns="http://www.w3.org/2000/svg"
   xmlns:svg="http://www.w3.org/2000/svg">
  <defs
     id="defs12" />
  <sodipodi:namedview
     id="namedview10"
     pagecolor="#ffffff"
     bordercolor="#666666"
     borderopacity="1.0"
     inkscape:pageshadow="2"
     inkscape:pageopacity="0.0"
     inkscape:pagecheckerboard="0"
     showgrid="false"
     inkscape:zoom="31.041667"
     inkscape:cx="9.0040268"
     inkscape:cy="10.002685"
     inkscape:window-width="1920"
     inkscape:window-height="1012"
     inkscape:window-x="0"
     inkscape:window-y="0"
     inkscape:window-maximized="1"
     inkscape:current-layer="svg8"
     fit-margin-top="0"
     fit-margin-left="0"
     fit-margin-right="0"
     fit-margin-bottom="0" />
  <path
     d="M 1,4 V 1.6 A 0.6,0.6 0 0 1 1.6,1 H 16.4 A 0.6,0.6 0 0 1 17,1.6 V 4 M 1,16 v 2.4 A 0.6,0.6 0 0 0 1.6,19 H 16.4 A 0.6,0.6 0 0 0 17,18.4 V 16"
     stroke="#000000"
     stroke-width="2"
     stroke-linecap="round"
     id="path2"
     style="stroke:#619b8a;stroke-opacity:1" />
  <path
     d="m 13.5,7 v 6 l 1.5,-3 1.5,3 V 7 m -9,6 v -3 m 0,0 V 8.5 A 1.5,1.5 0 0 1 9,7 v 0 a 1.5,1.5 0 0 1 1.5,1.5 V 10 m -3,0 h 3 m 0,0 v 3 m -9,0 V 7 H 3.9 A 0.6,0.6 0 0 1 4.5,7.6 V 8.5 A 1.5,1.5 0 0 1 3,10 v 0"
     stroke="#000000"
     stroke-width="2"
     stroke-linecap="round"
     stroke-linejoin="round"
     id="path4"
     style="stroke:#619b8a;stroke-opacity:1" />
  <path
     d="M 1.5,10 H 3 v 0 a 1.5,1.5 0 0 1 1.5,1.5 V 13"
     stroke="#000000"
     stroke-width="2"
     stroke-linecap="round"
     stroke-linejoin="round"
     id="path6"
     style="stroke:#619b8a;stroke-opacity:1" />
</svg>
