<?xml version="1.0" encoding="UTF-8" standalone="no"?>
<svg
   viewBox="0 0 15 15"
   fill="none"
   width="15"
   height="15"
   version="1.1"
   id="svg4"
   sodipodi:docname="raw.svg"
   inkscape:version="1.1.2 (0a00cf5339, 2022-02-04)"
   xmlns:inkscape="http://www.inkscape.org/namespaces/inkscape"
   xmlns:sodipodi="http://sodipodi.sourceforge.net/DTD/sodipodi-0.dtd"
   xmlns="http://www.w3.org/2000/svg"
   xmlns:svg="http://www.w3.org/2000/svg">
  <defs
     id="defs8" />
  <sodipodi:namedview
     id="namedview6"
     pagecolor="#ffffff"
     bordercolor="#666666"
     borderopacity="1.0"
     inkscape:pageshadow="2"
     inkscape:pageopacity="0.0"
     inkscape:pagecheckerboard="0"
     showgrid="false"
     inkscape:zoom="49.666667"
     inkscape:cx="7.5"
     inkscape:cy="7.5"
     inkscape:window-width="1920"
     inkscape:window-height="1012"
     inkscape:window-x="0"
     inkscape:window-y="0"
     inkscape:window-maximized="1"
     inkscape:current-layer="svg4" />
  <path
     d="M4.5 3.5l.354-.354a.5.5 0 00-.708 0L4.5 3.5zM1.5 1h12V0h-12v1zm12.5.5v12h1v-12h-1zM13.5 14h-12v1h12v-1zM1 13.5v-12H0v12h1zm.5.5a.5.5 0 01-.5-.5H0A1.5 1.5 0 001.5 15v-1zm12.5-.5a.5.5 0 01-.5.5v1a1.5 1.5 0 001.5-1.5h-1zM13.5 1a.5.5 0 01.5.5h1A1.5 1.5 0 0013.5 0v1zm-12-1A1.5 1.5 0 000 1.5h1a.5.5 0 01.5-.5V0zm-1 11h14v-1H.5v1zm.354-3.146l4-4-.708-.708-4 4 .708.708zm3.292-4l7 7 .708-.708-7-7-.708.708zM10.5 5a.5.5 0 01-.5-.5H9A1.5 1.5 0 0010.5 6V5zm.5-.5a.5.5 0 01-.5.5v1A1.5 1.5 0 0012 4.5h-1zm-.5-.5a.5.5 0 01.5.5h1A1.5 1.5 0 0010.5 3v1zm0-1A1.5 1.5 0 009 4.5h1a.5.5 0 01.5-.5V3z"
     fill="currentColor"
     id="path2"
     style="fill:#619b8a;fill-opacity:1" />
</svg>
