<?xml version="1.0" encoding="UTF-8" standalone="no"?>
<svg
   width="30"
   height="30"
   stroke-width="2"
   viewBox="0 0 24 24"
   fill="none"
   color="#1e81b0"
   version="1.1"
   id="svg6"
   sodipodi:docname="search.svg"
   inkscape:version="1.1.2 (0a00cf5339, 2022-02-04)"
   xmlns:inkscape="http://www.inkscape.org/namespaces/inkscape"
   xmlns:sodipodi="http://sodipodi.sourceforge.net/DTD/sodipodi-0.dtd"
   xmlns="http://www.w3.org/2000/svg"
   xmlns:svg="http://www.w3.org/2000/svg">
  <defs
     id="defs10" />
  <sodipodi:namedview
     id="namedview8"
     pagecolor="#ffffff"
     bordercolor="#666666"
     borderopacity="1.0"
     inkscape:pageshadow="2"
     inkscape:pageopacity="0.0"
     inkscape:pagecheckerboard="0"
     showgrid="false"
     fit-margin-top="0"
     fit-margin-left="0"
     fit-margin-right="0"
     fit-margin-bottom="0"
     inkscape:zoom="43.55"
     inkscape:cx="8.2433984"
     inkscape:cy="8.3237658"
     inkscape:window-width="2048"
     inkscape:window-height="1080"
     inkscape:window-x="0"
     inkscape:window-y="0"
     inkscape:window-maximized="1"
     inkscape:current-layer="svg6" />
  <path
     d="M 1.2,20.4 V 3.6 C 1.2,2.274516 2.274516,1.2 3.6,1.2 h 16.8 c 1.32552,0 2.4,1.074516 2.4,2.4 v 16.8 c 0,1.32552 -1.07448,2.4 -2.4,2.4 H 3.6 c -1.325484,0 -2.4,-1.07448 -2.4,-2.4 z"
     stroke="#1e81b0"
     stroke-width="2.4"
     id="path2"
     style="stroke:#619b8a;stroke-opacity:1" />
  <path
     d="m 14.22744,14.21964 c 0.7422,-0.74424 1.20108,-1.7712 1.20108,-2.90532 C 15.42852,9.042024 13.58652,7.2 11.31432,7.2 9.042024,7.2 7.2,9.042024 7.2,11.31432 c 0,2.2722 1.842024,4.1142 4.11432,4.1142 1.13808,0 2.16828,-0.462 2.91312,-1.20888 z m 0,0 L 16.8,16.8"
     stroke="#1e81b0"
     stroke-width="2.4"
     stroke-linecap="round"
     stroke-linejoin="round"
     id="path4"
     style="stroke:#619b8a;stroke-opacity:1" />
</svg>
