<?xml version="1.0" encoding="UTF-8" standalone="no"?>
<svg
   width="20"
   height="20"
   stroke-width="2"
   viewBox="0 0 20 20"
   fill="none"
   color="#000000"
   version="1.1"
   id="svg4"
   sodipodi:docname="stats.svg"
   inkscape:version="1.1.2 (0a00cf5339, 2022-02-04)"
   xmlns:inkscape="http://www.inkscape.org/namespaces/inkscape"
   xmlns:sodipodi="http://sodipodi.sourceforge.net/DTD/sodipodi-0.dtd"
   xmlns="http://www.w3.org/2000/svg"
   xmlns:svg="http://www.w3.org/2000/svg">
  <defs
     id="defs8" />
  <sodipodi:namedview
     id="namedview6"
     pagecolor="#ffffff"
     bordercolor="#666666"
     borderopacity="1.0"
     inkscape:pageshadow="2"
     inkscape:pageopacity="0.0"
     inkscape:pagecheckerboard="0"
     showgrid="false"
     fit-margin-top="0"
     fit-margin-left="0"
     fit-margin-right="0"
     fit-margin-bottom="0"
     inkscape:zoom="31.041667"
     inkscape:cx="10.018792"
     inkscape:cy="10.002684"
     inkscape:window-width="2560"
     inkscape:window-height="1368"
     inkscape:window-x="0"
     inkscape:window-y="0"
     inkscape:window-maximized="1"
     inkscape:current-layer="svg4" />
  <path
     d="m 7,19 h 6 m -6,0 v -5 m 0,5 H 1.6 A 0.6,0.6 0 0 1 1,18.4 V 14.6 A 0.6,0.6 0 0 1 1.6,14 H 7 m 6,5 V 7 m 0,12 h 5.4 A 0.6,0.6 0 0 0 19,18.4 V 1.6 A 0.6,0.6 0 0 0 18.4,1 H 13.6 A 0.6,0.6 0 0 0 13,1.6 V 7 m 0,0 H 7.6 A 0.6,0.6 0 0 0 7,7.6 V 14"
     stroke="#000000"
     stroke-width="2"
     id="path2"
     style="stroke:#59a2d8;stroke-opacity:1" />
</svg>
