<?xml version="1.0" encoding="UTF-8" standalone="no"?>
<svg
   xmlns:dc="http://purl.org/dc/elements/1.1/"
   xmlns:cc="http://creativecommons.org/ns#"
   xmlns:rdf="http://www.w3.org/1999/02/22-rdf-syntax-ns#"
   xmlns:svg="http://www.w3.org/2000/svg"
   xmlns="http://www.w3.org/2000/svg"
   xmlns:sodipodi="http://sodipodi.sourceforge.net/DTD/sodipodi-0.dtd"
   xmlns:inkscape="http://www.inkscape.org/namespaces/inkscape"
   width="18"
   height="18"
   viewBox="0 0 18 18"
   fill="none"
   version="1.1"
   id="svg6"
   sodipodi:docname="track.svg"
   inkscape:version="1.0.1 (3bc2e813f5, 2020-09-07)">
  <metadata
     id="metadata12">
    <rdf:RDF>
      <cc:Work
         rdf:about="">
        <dc:format>image/svg+xml</dc:format>
        <dc:type
           rdf:resource="http://purl.org/dc/dcmitype/StillImage" />
        <dc:title />
      </cc:Work>
    </rdf:RDF>
  </metadata>
  <defs
     id="defs10" />
  <sodipodi:namedview
     pagecolor="#ffffff"
     bordercolor="#666666"
     borderopacity="1"
     objecttolerance="10"
     gridtolerance="10"
     guidetolerance="10"
     inkscape:pageopacity="0"
     inkscape:pageshadow="2"
     inkscape:window-width="1920"
     inkscape:window-height="1056"
     id="namedview8"
     showgrid="false"
     fit-margin-top="0"
     fit-margin-left="0"
     fit-margin-right="0"
     fit-margin-bottom="0"
     inkscape:zoom="29.791667"
     inkscape:cx="3.4447552"
     inkscape:cy="9"
     inkscape:window-x="0"
     inkscape:window-y="0"
     inkscape:window-maximized="1"
     inkscape:current-layer="svg6"
     inkscape:document-rotation="0" />
  <g
     id="g837"
     style="fill:#b3b3b3">
    <path
       d="m 9,12 c 1.6569,0 3,-1.3431 3,-3 C 12,7.3431 10.6569,6 9,6 7.3431,6 6,7.3431 6,9 c 0,1.6569 1.3431,3 3,3 z"
       fill="currentColor"
       id="path2"
       style="fill:#b3b3b3;fill-opacity:1" />
    <g
       id="g832"
       style="fill:#b3b3b3">
      <path
         fill-rule="evenodd"
         clip-rule="evenodd"
         d="m 9,0 c 0.5523,0 1,0.44772 1,1 V 2.07089 C 13.0657,2.5094 15.4906,4.93431 15.9291,8 H 17 c 0.5523,0 1,0.4477 1,1 0,0.5523 -0.4477,1 -1,1 H 15.9291 C 15.4906,13.0657 13.0657,15.4906 10,15.9291 V 17 C 10,17.5523 9.5523,18 9,18 8.4477,18 8,17.5523 8,17 V 15.9291 C 4.93431,15.4906 2.5094,13.0657 2.07089,10 H 1 C 0.44772,10 0,9.5523 0,9 0,8.4477 0.44772,8 1,8 H 2.07089 C 2.5094,4.93431 4.93431,2.5094 8,2.07089 V 1 C 8,0.44772 8.4477,0 9,0 Z M 4,9 C 4,6.23858 6.23858,4 9,4 c 2.7614,0 5,2.23858 5,5 0,2.7614 -2.2386,5 -5,5 C 6.23858,14 4,11.7614 4,9 Z"
         fill="currentColor"
         id="path4"
         style="fill:#b3b3b3;fill-opacity:1" />
    </g>
  </g>
</svg>
