<?xml version="1.0" encoding="UTF-8" standalone="no"?>
<!-- Created with Inkscape (http://www.inkscape.org/) -->

<svg
   width="436.6514"
   height="500"
   id="svg2"
   version="1.1"
   inkscape:version="1.1.2 (0a00cf5339, 2022-02-04)"
   sodipodi:docname="favicon.svg"
   inkscape:export-filename="/home/dmpop/Documents/pellicola/favicon.png"
   inkscape:export-xdpi="96"
   inkscape:export-ydpi="96"
   xmlns:inkscape="http://www.inkscape.org/namespaces/inkscape"
   xmlns:sodipodi="http://sodipodi.sourceforge.net/DTD/sodipodi-0.dtd"
   xmlns="http://www.w3.org/2000/svg"
   xmlns:svg="http://www.w3.org/2000/svg"
   xmlns:rdf="http://www.w3.org/1999/02/22-rdf-syntax-ns#"
   xmlns:cc="http://creativecommons.org/ns#"
   xmlns:dc="http://purl.org/dc/elements/1.1/">
  <defs
     id="defs4">
    <clipPath
       clipPathUnits="userSpaceOnUse"
       id="clipPath1107">
      <circle
         style="fill:#ffffff;fill-opacity:0.535336;stroke-width:23.1746"
         id="circle1109"
         cx="892.30353"
         cy="4.2330256"
         r="256.37601" />
    </clipPath>
    <clipPath
       clipPathUnits="userSpaceOnUse"
       id="clipPath1111">
      <ellipse
         style="fill:#ffffff;fill-opacity:0.535336;stroke-width:25.9139"
         id="circle1113"
         cx="1115.717"
         cy="4.2330256"
         rx="320.56705"
         ry="256.37601"
         transform="matrix(-0.90543157,0.42449226,0,1,0,0)" />
    </clipPath>
    <clipPath
       clipPathUnits="userSpaceOnUse"
       id="clipPath1115">
      <ellipse
         style="fill:#ffffff;fill-opacity:0.535336;stroke-width:25.9139"
         id="circle1117"
         cx="1115.717"
         cy="4.2330256"
         rx="320.56705"
         ry="256.37601"
         transform="matrix(0.90543157,-0.42449226,0,1,0,0)" />
    </clipPath>
    <clipPath
       clipPathUnits="userSpaceOnUse"
       id="clipPath1119">
      <ellipse
         style="fill:#ffffff;fill-opacity:0.535336;stroke-width:25.9139"
         id="circle1121"
         cx="1115.717"
         cy="4.2330256"
         rx="320.56705"
         ry="256.37601"
         transform="matrix(-0.90543157,0.42449226,0,1,0,0)" />
    </clipPath>
    <clipPath
       clipPathUnits="userSpaceOnUse"
       id="clipPath1123">
      <ellipse
         style="fill:#ffffff;fill-opacity:0.535336;stroke-width:25.9139"
         id="circle1125"
         cx="1115.717"
         cy="4.2330256"
         rx="320.56705"
         ry="256.37601"
         transform="matrix(-0.90543157,0.42449226,0,1,0,0)" />
    </clipPath>
    <clipPath
       clipPathUnits="userSpaceOnUse"
       id="clipPath1127">
      <ellipse
         style="fill:#ffffff;fill-opacity:0.535336;stroke-width:25.9139"
         id="circle1129"
         cx="1115.717"
         cy="4.2330256"
         rx="320.56705"
         ry="256.37601"
         transform="matrix(0.90543157,-0.42449226,0,1,0,0)" />
    </clipPath>
    <clipPath
       clipPathUnits="userSpaceOnUse"
       id="clipPath1131">
      <ellipse
         style="fill:#ffffff;fill-opacity:0.535336;stroke-width:25.9139"
         id="circle1133"
         cx="1115.717"
         cy="4.2330256"
         rx="320.56705"
         ry="256.37601"
         transform="matrix(0.90543157,-0.42449226,0,1,0,0)" />
    </clipPath>
    <clipPath
       clipPathUnits="userSpaceOnUse"
       id="clipPath1135">
      <ellipse
         style="fill:#ffffff;fill-opacity:0.535336;stroke-width:25.9139"
         id="circle1137"
         cx="1115.717"
         cy="4.2330256"
         rx="320.56705"
         ry="256.37601"
         transform="matrix(0.90543157,-0.42449226,0,1,0,0)" />
    </clipPath>
    <clipPath
       clipPathUnits="userSpaceOnUse"
       id="clipPath1139">
      <ellipse
         style="fill:#ffffff;fill-opacity:0.535336;stroke-width:23.1746"
         id="circle1141"
         cx="872.64246"
         cy="4.3283978"
         rx="250.72701"
         ry="262.15228" />
    </clipPath>
    <clipPath
       clipPathUnits="userSpaceOnUse"
       id="clipPath1143">
      <ellipse
         style="fill:#ffffff;fill-opacity:0.535336;stroke-width:25.9139"
         id="circle1145"
         cx="1115.717"
         cy="4.2330256"
         rx="320.56705"
         ry="256.37601"
         transform="matrix(-0.90543157,0.42449226,0,1,0,0)" />
    </clipPath>
    <clipPath
       clipPathUnits="userSpaceOnUse"
       id="clipPath1147">
      <circle
         style="fill:#ffffff;fill-opacity:0.535336;stroke-width:23.1746"
         id="circle1149"
         cx="892.30353"
         cy="4.2330256"
         r="256.37601" />
    </clipPath>
    <clipPath
       clipPathUnits="userSpaceOnUse"
       id="clipPath24175">
      <g
         id="g24181"
         transform="matrix(3.1144662,1.7981379,-1.7981379,3.1144662,493.52651,-968.12507)"
         style="fill:#9b6172;fill-opacity:1">
        <g
           id="g24179"
           transform="matrix(1.4385468,0,0,1.4385468,-102.11586,-95.217587)"
           style="fill:#9b6172;fill-opacity:1">
          <path
             sodipodi:type="star"
             style="fill:#9b6172;fill-opacity:1;stroke-width:11;stroke-linecap:round;stroke-linejoin:round"
             id="path24177"
             inkscape:flatsided="false"
             sodipodi:sides="4"
             sodipodi:cx="-434.04858"
             sodipodi:cy="-91.72599"
             sodipodi:r1="169.6143"
             sodipodi:r2="146.71637"
             sodipodi:arg1="0.78539816"
             sodipodi:arg2="1.5707963"
             inkscape:rounded="0.289507"
             inkscape:randomized="0"
             transform="matrix(0.31340065,0,0,0.31340065,254.10109,142.02166)"
             inkscape:transform-center-x="-0.090465299"
             inkscape:transform-center-y="0.090473927"
             d="m -314.11316,28.209434 c -25.15691,25.156913 -84.35817,26.780945 -119.93542,26.780945 -35.57725,0 -94.77851,-1.624031 -119.93543,-26.780945 -25.15691,-25.1569114 -26.78094,-84.358174 -26.78094,-119.93542 0,-35.577254 1.62403,-94.778514 26.78094,-119.935424 25.15691,-25.15692 84.35818,-26.78095 119.93542,-26.78095 35.57725,0 94.77852,1.62403 119.93543,26.78095 25.15691,25.15691 26.78095,84.35817 26.78095,119.935416 0,35.577248 -1.62404,94.778513 -26.78095,119.935428 z" />
        </g>
      </g>
    </clipPath>
    <clipPath
       clipPathUnits="userSpaceOnUse"
       id="clipPath42308">
      <g
         id="g42312"
         transform="matrix(5.4370273,0,0,5.4370273,1144.0103,-1579.7181)"
         style="fill:#1497d4;fill-opacity:1">
        <path
           sodipodi:type="star"
           style="fill:#1497d4;fill-opacity:1;stroke-width:11;stroke-linecap:round;stroke-linejoin:round"
           id="path42310"
           inkscape:flatsided="false"
           sodipodi:sides="4"
           sodipodi:cx="-434.04858"
           sodipodi:cy="-91.72599"
           sodipodi:r1="169.6143"
           sodipodi:r2="146.71637"
           sodipodi:arg1="0.78539816"
           sodipodi:arg2="1.5707963"
           inkscape:rounded="0.289507"
           inkscape:randomized="0"
           transform="matrix(0.31340065,0,0,0.31340065,105.31481,75.604558)"
           inkscape:transform-center-x="-0.090465299"
           inkscape:transform-center-y="0.090473927"
           d="m -314.11316,28.209434 c -25.15691,25.156913 -84.35817,26.780945 -119.93542,26.780945 -35.57725,0 -94.77851,-1.624031 -119.93543,-26.780945 -25.15691,-25.1569114 -26.78094,-84.358174 -26.78094,-119.93542 0,-35.577254 1.62403,-94.778514 26.78094,-119.935424 25.15691,-25.15692 84.35818,-26.78095 119.93542,-26.78095 35.57725,0 94.77852,1.62403 119.93543,26.78095 25.15691,25.15691 26.78095,84.35817 26.78095,119.935416 0,35.577248 -1.62404,94.778513 -26.78095,119.935428 z" />
      </g>
    </clipPath>
    <clipPath
       clipPathUnits="userSpaceOnUse"
       id="clipPath59496">
      <g
         id="g59500"
         transform="matrix(5.0815461,0,0,5.0815461,447.10292,-1220.6583)"
         style="fill:#87cdde;fill-opacity:1">
        <path
           sodipodi:type="star"
           style="fill:#87cdde;fill-opacity:1;stroke-width:11;stroke-linecap:round;stroke-linejoin:round"
           id="path59498"
           inkscape:flatsided="false"
           sodipodi:sides="4"
           sodipodi:cx="-434.04858"
           sodipodi:cy="-91.72599"
           sodipodi:r1="169.6143"
           sodipodi:r2="146.71637"
           sodipodi:arg1="0.78539816"
           sodipodi:arg2="1.5707963"
           inkscape:rounded="0.289507"
           inkscape:randomized="0"
           transform="matrix(0.31340065,0,0,0.31340065,254.10109,142.02166)"
           inkscape:transform-center-x="-0.090465299"
           inkscape:transform-center-y="0.090473927"
           d="m -314.11316,28.209434 c -25.15691,25.156913 -84.35817,26.780945 -119.93542,26.780945 -35.57725,0 -94.77851,-1.624031 -119.93543,-26.780945 -25.15691,-25.1569114 -26.78094,-84.358174 -26.78094,-119.93542 0,-35.577254 1.62403,-94.778514 26.78094,-119.935424 25.15691,-25.15692 84.35818,-26.78095 119.93542,-26.78095 35.57725,0 94.77852,1.62403 119.93543,26.78095 25.15691,25.15691 26.78095,84.35817 26.78095,119.935416 0,35.577248 -1.62404,94.778513 -26.78095,119.935428 z" />
      </g>
    </clipPath>
  </defs>
  <sodipodi:namedview
     id="base"
     pagecolor="#ffffff"
     bordercolor="#666666"
     borderopacity="1.0"
     inkscape:pageopacity="0.0"
     inkscape:pageshadow="2"
     inkscape:zoom="0.54345024"
     inkscape:cx="301.77556"
     inkscape:cy="379.97959"
     inkscape:document-units="px"
     inkscape:current-layer="layer1"
     showgrid="false"
     inkscape:window-width="1920"
     inkscape:window-height="1008"
     inkscape:window-x="0"
     inkscape:window-y="0"
     inkscape:window-maximized="1"
     inkscape:showpageshadow="false"
     showguides="true"
     inkscape:guide-bbox="true"
     showborder="true"
     fit-margin-top="0"
     fit-margin-left="0"
     fit-margin-right="0"
     fit-margin-bottom="0"
     inkscape:pagecheckerboard="0" />
  <metadata
     id="metadata7">
    <rdf:RDF>
      <cc:Work
         rdf:about="">
        <dc:format>image/svg+xml</dc:format>
        <dc:type
           rdf:resource="http://purl.org/dc/dcmitype/StillImage" />
      </cc:Work>
    </rdf:RDF>
  </metadata>
  <g
     inkscape:label="Layer 1"
     inkscape:groupmode="layer"
     id="layer1"
     transform="translate(-87.382889,1511.7752)">
    <g
       id="g1072"
       transform="translate(-9.6441146e-6,-0.00200985)">
      <rect
         style="fill:#fe7f2d;fill-opacity:1;stroke-width:18.4508;stroke-linecap:round"
         id="rect890"
         width="269.68073"
         height="369.0318"
         x="254.35358"
         y="-1433.0413" />
      <ellipse
         style="fill:#782167;stroke-width:12.744;stroke-linecap:round"
         id="path994"
         cx="389.19394"
         cy="-1432.5278"
         rx="134.84036"
         ry="49.171154" />
      <ellipse
         style="fill:#fe7f2d;fill-opacity:1;stroke-width:12.744;stroke-linecap:round"
         id="path994-3"
         cx="389.19394"
         cy="-1060.9443"
         rx="134.84036"
         ry="49.171154" />
      <path
         id="rect10240"
         style="fill:#ffc33c;fill-opacity:1;stroke-width:19.5075;stroke-linecap:round"
         d="M 254.35358,-1433.0412 H 87.382899 v 150.5153 c 0,0 38.191781,-2.5571 83.485341,19.7282 45.29355,22.2852 83.48534,99.5744 83.48534,99.5744 z"
         sodipodi:nodetypes="ccczcc" />
      <g
         id="g34257"
         transform="matrix(0.89893571,0,0,0.89893571,99.945464,55.414341)">
        <ellipse
           style="fill:#a1c553;fill-opacity:1;stroke-width:7.56091;stroke-linecap:round"
           id="path994-7"
           cx="321.7677"
           cy="-1714.2081"
           rx="80"
           ry="29.172962" />
        <ellipse
           style="fill:#a1c553;fill-opacity:1;stroke-width:7.56091;stroke-linecap:round"
           id="path994-7-5"
           cx="321.7677"
           cy="-1669.6251"
           rx="80"
           ry="29.172962" />
        <rect
           style="fill:#a1c553;fill-opacity:1;stroke-width:17.3319;stroke-linecap:round"
           id="rect26392"
           width="160"
           height="46.582199"
           x="241.7677"
           y="-1715.3403" />
      </g>
    </g>
  </g>
</svg>
