<?xml version="1.0" encoding="UTF-8" standalone="no"?>
<!-- Created with Inkscape (http://www.inkscape.org/) -->

<svg
   width="436.6514"
   height="500"
   id="svg2"
   version="1.1"
   inkscape:version="1.4 (e7c3feb1, 2024-10-09)"
   sodipodi:docname="favicon.svg"
   inkscape:export-filename="favicon.png"
   inkscape:export-xdpi="96"
   inkscape:export-ydpi="96"
   xmlns:inkscape="http://www.inkscape.org/namespaces/inkscape"
   xmlns:sodipodi="http://sodipodi.sourceforge.net/DTD/sodipodi-0.dtd"
   xmlns:xlink="http://www.w3.org/1999/xlink"
   xmlns="http://www.w3.org/2000/svg"
   xmlns:svg="http://www.w3.org/2000/svg"
   xmlns:rdf="http://www.w3.org/1999/02/22-rdf-syntax-ns#"
   xmlns:cc="http://creativecommons.org/ns#"
   xmlns:dc="http://purl.org/dc/elements/1.1/">
  <defs
     id="defs4">
    <linearGradient
       inkscape:collect="always"
       id="linearGradient2800">
      <stop
         style="stop-color:#ffd18c;stop-opacity:1;"
         offset="0"
         id="stop2796" />
      <stop
         style="stop-color:#ff0000;stop-opacity:0;"
         offset="1"
         id="stop2798" />
    </linearGradient>
    <linearGradient
       inkscape:collect="always"
       id="linearGradient4694">
      <stop
         style="stop-color:#000000;stop-opacity:1;"
         offset="0"
         id="stop4690" />
      <stop
         style="stop-color:#00505e;stop-opacity:0;"
         offset="1"
         id="stop4692" />
    </linearGradient>
    <clipPath
       clipPathUnits="userSpaceOnUse"
       id="clipPath1107">
      <circle
         style="fill:#ffffff;fill-opacity:0.535336;stroke-width:23.1746"
         id="circle1109"
         cx="892.30353"
         cy="4.2330256"
         r="256.37601" />
    </clipPath>
    <clipPath
       clipPathUnits="userSpaceOnUse"
       id="clipPath1111">
      <ellipse
         style="fill:#ffffff;fill-opacity:0.535336;stroke-width:25.9139"
         id="circle1113"
         cx="1115.717"
         cy="4.2330256"
         rx="320.56705"
         ry="256.37601"
         transform="matrix(-0.90543157,0.42449226,0,1,0,0)" />
    </clipPath>
    <clipPath
       clipPathUnits="userSpaceOnUse"
       id="clipPath1115">
      <ellipse
         style="fill:#ffffff;fill-opacity:0.535336;stroke-width:25.9139"
         id="circle1117"
         cx="1115.717"
         cy="4.2330256"
         rx="320.56705"
         ry="256.37601"
         transform="matrix(0.90543157,-0.42449226,0,1,0,0)" />
    </clipPath>
    <clipPath
       clipPathUnits="userSpaceOnUse"
       id="clipPath1119">
      <ellipse
         style="fill:#ffffff;fill-opacity:0.535336;stroke-width:25.9139"
         id="circle1121"
         cx="1115.717"
         cy="4.2330256"
         rx="320.56705"
         ry="256.37601"
         transform="matrix(-0.90543157,0.42449226,0,1,0,0)" />
    </clipPath>
    <clipPath
       clipPathUnits="userSpaceOnUse"
       id="clipPath1123">
      <ellipse
         style="fill:#ffffff;fill-opacity:0.535336;stroke-width:25.9139"
         id="circle1125"
         cx="1115.717"
         cy="4.2330256"
         rx="320.56705"
         ry="256.37601"
         transform="matrix(-0.90543157,0.42449226,0,1,0,0)" />
    </clipPath>
    <clipPath
       clipPathUnits="userSpaceOnUse"
       id="clipPath1127">
      <ellipse
         style="fill:#ffffff;fill-opacity:0.535336;stroke-width:25.9139"
         id="circle1129"
         cx="1115.717"
         cy="4.2330256"
         rx="320.56705"
         ry="256.37601"
         transform="matrix(0.90543157,-0.42449226,0,1,0,0)" />
    </clipPath>
    <clipPath
       clipPathUnits="userSpaceOnUse"
       id="clipPath1131">
      <ellipse
         style="fill:#ffffff;fill-opacity:0.535336;stroke-width:25.9139"
         id="circle1133"
         cx="1115.717"
         cy="4.2330256"
         rx="320.56705"
         ry="256.37601"
         transform="matrix(0.90543157,-0.42449226,0,1,0,0)" />
    </clipPath>
    <clipPath
       clipPathUnits="userSpaceOnUse"
       id="clipPath1135">
      <ellipse
         style="fill:#ffffff;fill-opacity:0.535336;stroke-width:25.9139"
         id="circle1137"
         cx="1115.717"
         cy="4.2330256"
         rx="320.56705"
         ry="256.37601"
         transform="matrix(0.90543157,-0.42449226,0,1,0,0)" />
    </clipPath>
    <clipPath
       clipPathUnits="userSpaceOnUse"
       id="clipPath1139">
      <ellipse
         style="fill:#ffffff;fill-opacity:0.535336;stroke-width:23.1746"
         id="circle1141"
         cx="872.64246"
         cy="4.3283978"
         rx="250.72701"
         ry="262.15228" />
    </clipPath>
    <clipPath
       clipPathUnits="userSpaceOnUse"
       id="clipPath1143">
      <ellipse
         style="fill:#ffffff;fill-opacity:0.535336;stroke-width:25.9139"
         id="circle1145"
         cx="1115.717"
         cy="4.2330256"
         rx="320.56705"
         ry="256.37601"
         transform="matrix(-0.90543157,0.42449226,0,1,0,0)" />
    </clipPath>
    <clipPath
       clipPathUnits="userSpaceOnUse"
       id="clipPath1147">
      <circle
         style="fill:#ffffff;fill-opacity:0.535336;stroke-width:23.1746"
         id="circle1149"
         cx="892.30353"
         cy="4.2330256"
         r="256.37601" />
    </clipPath>
    <clipPath
       clipPathUnits="userSpaceOnUse"
       id="clipPath24175">
      <g
         id="g24181"
         transform="matrix(3.1144662,1.7981379,-1.7981379,3.1144662,493.52651,-968.12507)"
         style="fill:#9b6172;fill-opacity:1">
        <g
           id="g24179"
           transform="matrix(1.4385468,0,0,1.4385468,-102.11586,-95.217587)"
           style="fill:#9b6172;fill-opacity:1">
          <path
             sodipodi:type="star"
             style="fill:#9b6172;fill-opacity:1;stroke-width:11;stroke-linecap:round;stroke-linejoin:round"
             id="path24177"
             inkscape:flatsided="false"
             sodipodi:sides="4"
             sodipodi:cx="-434.04858"
             sodipodi:cy="-91.72599"
             sodipodi:r1="169.6143"
             sodipodi:r2="146.71637"
             sodipodi:arg1="0.78539816"
             sodipodi:arg2="1.5707963"
             inkscape:rounded="0.289507"
             inkscape:randomized="0"
             transform="matrix(0.31340065,0,0,0.31340065,254.10109,142.02166)"
             inkscape:transform-center-x="-0.090465299"
             inkscape:transform-center-y="0.090473927"
             d="m -314.11316,28.209434 c -25.15691,25.156913 -84.35817,26.780945 -119.93542,26.780945 -35.57725,0 -94.77851,-1.624031 -119.93543,-26.780945 -25.15691,-25.1569114 -26.78094,-84.358174 -26.78094,-119.93542 0,-35.577254 1.62403,-94.778514 26.78094,-119.935424 25.15691,-25.15692 84.35818,-26.78095 119.93542,-26.78095 35.57725,0 94.77852,1.62403 119.93543,26.78095 25.15691,25.15691 26.78095,84.35817 26.78095,119.935416 0,35.577248 -1.62404,94.778513 -26.78095,119.935428 z" />
        </g>
      </g>
    </clipPath>
    <clipPath
       clipPathUnits="userSpaceOnUse"
       id="clipPath42308">
      <g
         id="g42312"
         transform="matrix(5.4370273,0,0,5.4370273,1144.0103,-1579.7181)"
         style="fill:#1497d4;fill-opacity:1">
        <path
           sodipodi:type="star"
           style="fill:#1497d4;fill-opacity:1;stroke-width:11;stroke-linecap:round;stroke-linejoin:round"
           id="path42310"
           inkscape:flatsided="false"
           sodipodi:sides="4"
           sodipodi:cx="-434.04858"
           sodipodi:cy="-91.72599"
           sodipodi:r1="169.6143"
           sodipodi:r2="146.71637"
           sodipodi:arg1="0.78539816"
           sodipodi:arg2="1.5707963"
           inkscape:rounded="0.289507"
           inkscape:randomized="0"
           transform="matrix(0.31340065,0,0,0.31340065,105.31481,75.604558)"
           inkscape:transform-center-x="-0.090465299"
           inkscape:transform-center-y="0.090473927"
           d="m -314.11316,28.209434 c -25.15691,25.156913 -84.35817,26.780945 -119.93542,26.780945 -35.57725,0 -94.77851,-1.624031 -119.93543,-26.780945 -25.15691,-25.1569114 -26.78094,-84.358174 -26.78094,-119.93542 0,-35.577254 1.62403,-94.778514 26.78094,-119.935424 25.15691,-25.15692 84.35818,-26.78095 119.93542,-26.78095 35.57725,0 94.77852,1.62403 119.93543,26.78095 25.15691,25.15691 26.78095,84.35817 26.78095,119.935416 0,35.577248 -1.62404,94.778513 -26.78095,119.935428 z" />
      </g>
    </clipPath>
    <clipPath
       clipPathUnits="userSpaceOnUse"
       id="clipPath59496">
      <g
         id="g59500"
         transform="matrix(5.0815461,0,0,5.0815461,447.10292,-1220.6583)"
         style="fill:#87cdde;fill-opacity:1">
        <path
           sodipodi:type="star"
           style="fill:#87cdde;fill-opacity:1;stroke-width:11;stroke-linecap:round;stroke-linejoin:round"
           id="path59498"
           inkscape:flatsided="false"
           sodipodi:sides="4"
           sodipodi:cx="-434.04858"
           sodipodi:cy="-91.72599"
           sodipodi:r1="169.6143"
           sodipodi:r2="146.71637"
           sodipodi:arg1="0.78539816"
           sodipodi:arg2="1.5707963"
           inkscape:rounded="0.289507"
           inkscape:randomized="0"
           transform="matrix(0.31340065,0,0,0.31340065,254.10109,142.02166)"
           inkscape:transform-center-x="-0.090465299"
           inkscape:transform-center-y="0.090473927"
           d="m -314.11316,28.209434 c -25.15691,25.156913 -84.35817,26.780945 -119.93542,26.780945 -35.57725,0 -94.77851,-1.624031 -119.93543,-26.780945 -25.15691,-25.1569114 -26.78094,-84.358174 -26.78094,-119.93542 0,-35.577254 1.62403,-94.778514 26.78094,-119.935424 25.15691,-25.15692 84.35818,-26.78095 119.93542,-26.78095 35.57725,0 94.77852,1.62403 119.93543,26.78095 25.15691,25.15691 26.78095,84.35817 26.78095,119.935416 0,35.577248 -1.62404,94.778513 -26.78095,119.935428 z" />
      </g>
    </clipPath>
    <linearGradient
       inkscape:collect="always"
       xlink:href="#linearGradient4694"
       id="linearGradient4696"
       x1="209.32625"
       y1="-1457.3047"
       x2="389.0239"
       y2="-1457.3047"
       gradientUnits="userSpaceOnUse"
       gradientTransform="translate(0.12891,0.7793)" />
    <linearGradient
       inkscape:collect="always"
       xlink:href="#linearGradient2800"
       id="linearGradient2802"
       x1="8.3070984"
       y1="-1246.7361"
       x2="409.75803"
       y2="-1246.7361"
       gradientUnits="userSpaceOnUse" />
  </defs>
  <sodipodi:namedview
     id="base"
     pagecolor="#ffffff"
     bordercolor="#666666"
     borderopacity="1.0"
     inkscape:pageopacity="0.0"
     inkscape:pageshadow="2"
     inkscape:zoom="1"
     inkscape:cx="236"
     inkscape:cy="227.5"
     inkscape:document-units="px"
     inkscape:current-layer="g1072"
     showgrid="false"
     inkscape:window-width="1808"
     inkscape:window-height="1252"
     inkscape:window-x="130"
     inkscape:window-y="33"
     inkscape:window-maximized="0"
     inkscape:showpageshadow="false"
     showguides="true"
     inkscape:guide-bbox="true"
     showborder="true"
     fit-margin-top="0"
     fit-margin-left="0"
     fit-margin-right="0"
     fit-margin-bottom="0"
     inkscape:pagecheckerboard="0"
     inkscape:deskcolor="#d1d1d1" />
  <metadata
     id="metadata7">
    <rdf:RDF>
      <cc:Work
         rdf:about="">
        <dc:format>image/svg+xml</dc:format>
        <dc:type
           rdf:resource="http://purl.org/dc/dcmitype/StillImage" />
      </cc:Work>
    </rdf:RDF>
  </metadata>
  <g
     inkscape:label="Layer 1"
     inkscape:groupmode="layer"
     id="layer1"
     transform="translate(-87.382889,1511.7752)">
    <g
       id="g1072"
       transform="translate(-9.6441146e-6,-0.00200985)">
      <path
         id="rect966"
         style="fill:#ffac00;stroke-width:7.89393;fill-opacity:1"
         d="m 254.3536,-1432.5271 v 371.582 a 134.84036,49.171154 0 0 0 134.83985,49.1719 134.84036,49.171154 0 0 0 134.84179,-49.1719 v -371.582 z" />
      <path
         id="rect966-6"
         style="fill:url(#linearGradient2802);fill-opacity:1;stroke-width:7.89393"
         d="m 254.3536,-1432.5271 v 371.582 a 134.84036,49.171154 0 0 0 134.83985,49.1719 134.84036,49.171154 0 0 0 134.84179,-49.1719 v -371.582 z" />
      <ellipse
         style="fill:#d87159;fill-opacity:1;stroke-width:12.744;stroke-linecap:round"
         id="path994"
         cx="389.19394"
         cy="-1432.5278"
         rx="134.84036"
         ry="49.171154" />
      <path
         id="rect10240"
         style="fill:#46c23a;fill-opacity:1;stroke-width:19.5075;stroke-linecap:round"
         d="m 254.35358,-1409.0412 c 0,0 -55.65689,0 -83.48534,0 -27.82845,0 -83.485341,0 -83.485341,0 v 189.1036 c 83.587391,0 126.958221,2.2309 166.970681,80.7143 z"
         sodipodi:nodetypes="czcccc" />
      <path
         id="rect26392-3-5"
         style="fill:#55c1dd;stroke-width:15.5803;stroke-linecap:round;fill-opacity:1"
         d="m 320.03675,-1485.5486 v 41.0957 0.7793 h 0.12891 a 71.914856,26.224617 0 0 0 71.78515,25.4453 71.914856,26.224617 0 0 0 71.78711,-25.4453 h 0.12891 v -0.7793 -41.0957 z" />
      <path
         id="rect26392-3-5-5"
         style="fill:url(#linearGradient4696);fill-opacity:1;stroke-width:15.5803;stroke-linecap:round"
         d="m 320.03675,-1485.5486 v 41.0957 0.7793 h 0.12891 a 71.914856,26.224617 0 0 0 71.78515,25.4453 71.914856,26.224617 0 0 0 71.78711,-25.4453 h 0.12891 v -0.7793 -41.0957 z" />
      <ellipse
         style="fill:#009bc2;fill-opacity:1;stroke-width:6.79677;stroke-linecap:round"
         id="path994-7-3"
         cx="391.95175"
         cy="-1485.5486"
         rx="71.914856"
         ry="26.224617" />
    </g>
  </g>
</svg>
