<?xml version="1.0" encoding="UTF-8" standalone="no"?>
<svg
   xmlns:dc="http://purl.org/dc/elements/1.1/"
   xmlns:cc="http://creativecommons.org/ns#"
   xmlns:rdf="http://www.w3.org/1999/02/22-rdf-syntax-ns#"
   xmlns:svg="http://www.w3.org/2000/svg"
   xmlns="http://www.w3.org/2000/svg"
   xmlns:sodipodi="http://sodipodi.sourceforge.net/DTD/sodipodi-0.dtd"
   xmlns:inkscape="http://www.inkscape.org/namespaces/inkscape"
   width="22"
   height="22"
   viewBox="0 0 22 22"
   version="1.1"
   id="svg6"
   sodipodi:docname="arrow-top-right-o.svg"
   inkscape:version="0.92.2 5c3e80d, 2017-08-06"
   style="fill:none">
  <metadata
     id="metadata12">
    <rdf:RDF>
      <cc:Work
         rdf:about="">
        <dc:format>image/svg+xml</dc:format>
        <dc:type
           rdf:resource="http://purl.org/dc/dcmitype/StillImage" />
        <dc:title></dc:title>
      </cc:Work>
    </rdf:RDF>
  </metadata>
  <defs
     id="defs10" />
  <sodipodi:namedview
     pagecolor="#ffffff"
     bordercolor="#666666"
     borderopacity="1"
     objecttolerance="10"
     gridtolerance="10"
     guidetolerance="10"
     inkscape:pageopacity="0"
     inkscape:pageshadow="2"
     inkscape:window-width="1920"
     inkscape:window-height="1056"
     id="namedview8"
     showgrid="false"
     inkscape:zoom="9.8333333"
     inkscape:cx="-7.2542373"
     inkscape:cy="11"
     inkscape:window-x="0"
     inkscape:window-y="0"
     inkscape:window-maximized="1"
     inkscape:current-layer="svg6"
     fit-margin-top="0"
     fit-margin-left="0"
     fit-margin-right="0"
     fit-margin-bottom="0" />
  <path
     d="m 13,12.9633 h 2 V 6.96331 H 9 v 2 h 2.5858 L 6.25623,14.2929 7.67044,15.7071 13,10.3775 Z"
     id="path2"
     style="fill:#3973ac;fill-opacity:1"
     inkscape:connector-curvature="0" />
  <path
     d="M 0,11 C 0,4.92487 4.92487,0 11,0 17.0751,0 22,4.92487 22,11 22,17.0751 17.0751,22 11,22 4.92487,22 0,17.0751 0,11 Z m 2,0 c 0,-4.97056 4.02944,-9 9,-9 4.9706,0 9,4.02944 9,9 0,4.9706 -4.0294,9 -9,9 -4.97056,0 -9,-4.0294 -9,-9 z"
     id="path4"
     style="clip-rule:evenodd;fill:#3973ac;fill-opacity:1;fill-rule:evenodd"
     inkscape:connector-curvature="0" />
</svg>
