<?xml version="1.0" encoding="UTF-8" standalone="no"?>
<svg
   xmlns:dc="http://purl.org/dc/elements/1.1/"
   xmlns:cc="http://creativecommons.org/ns#"
   xmlns:rdf="http://www.w3.org/1999/02/22-rdf-syntax-ns#"
   xmlns:svg="http://www.w3.org/2000/svg"
   xmlns="http://www.w3.org/2000/svg"
   xmlns:sodipodi="http://sodipodi.sourceforge.net/DTD/sodipodi-0.dtd"
   xmlns:inkscape="http://www.inkscape.org/namespaces/inkscape"
   width="21.999973"
   height="21.999973"
   viewBox="0 0 21.999973 21.999973"
   version="1.1"
   id="svg6"
   sodipodi:docname="arrow-right-o.svg"
   inkscape:version="0.92.2 5c3e80d, 2017-08-06"
   style="fill:none">
  <metadata
     id="metadata12">
    <rdf:RDF>
      <cc:Work
         rdf:about="">
        <dc:format>image/svg+xml</dc:format>
        <dc:type
           rdf:resource="http://purl.org/dc/dcmitype/StillImage" />
        <dc:title></dc:title>
      </cc:Work>
    </rdf:RDF>
  </metadata>
  <defs
     id="defs10" />
  <sodipodi:namedview
     pagecolor="#ffffff"
     bordercolor="#666666"
     borderopacity="1"
     objecttolerance="10"
     gridtolerance="10"
     guidetolerance="10"
     inkscape:pageopacity="0"
     inkscape:pageshadow="2"
     inkscape:window-width="1920"
     inkscape:window-height="1056"
     id="namedview8"
     showgrid="false"
     inkscape:zoom="9.8333333"
     inkscape:cx="-7.2542386"
     inkscape:cy="10.999975"
     inkscape:window-x="0"
     inkscape:window-y="0"
     inkscape:window-maximized="1"
     inkscape:current-layer="svg6"
     fit-margin-top="0"
     fit-margin-left="0"
     fit-margin-right="0"
     fit-margin-bottom="0" />
  <path
     d="m 11.051899,13.828499 1.4142,1.4142 4.2427,-4.2427 -4.2427,-4.2426002 -1.4142,1.41421 1.8285,1.82839 H 5.3432088 v 2.0000002 h 7.5370902 z"
     id="path2"
     style="fill:#3973ac;fill-opacity:1"
     inkscape:connector-curvature="0" />
  <path
     d="m 18.778199,18.778199 c 4.2957,-4.2958 4.2957,-11.2606102 0,-15.5563702 -4.2958,-4.2957717 -11.2606102,-4.2957717 -15.5563702,0 -4.2957717,4.29576 -4.2957717,11.2605702 0,15.5563702 4.29576,4.2957 11.2605702,4.2957 15.5563702,0 z m -1.4142,-1.4142 c 3.5147,-3.5148 3.5147,-9.2132402 0,-12.7279602 -3.5148,-3.51472 -9.2132402,-3.51472 -12.7279602,0 -3.51472,3.51472 -3.51472,9.2131602 0,12.7279602 3.51472,3.5147 9.2131602,3.5147 12.7279602,0 z"
     id="path4"
     style="clip-rule:evenodd;fill:#3973ac;fill-opacity:1;fill-rule:evenodd"
     inkscape:connector-curvature="0" />
</svg>
